<mxfile host="app.diagrams.net" agent="Mozilla/5.0 (Windows NT 10.0; Win64; x64) AppleWebKit/537.36 (KHTML, like Gecko) Chrome/137.0.0.0 Safari/537.36 Edg/137.0.0.0" version="27.1.6">
  <diagram name="Terrorist_dw Schema" id="Terrorist_dw_Diagram">
    <mxGraphModel dx="778" dy="460" grid="1" gridSize="10" guides="1" tooltips="1" connect="1" arrows="1" fold="1" page="1" pageScale="1" pageWidth="1169" pageHeight="827" math="0" shadow="0">
      <root>
        <mxCell id="0" />
        <mxCell id="1" parent="0" />
        <mxCell id="wYsSjvrQutidgcIgIWFu-7" style="edgeStyle=orthogonalEdgeStyle;rounded=0;orthogonalLoop=1;jettySize=auto;html=1;exitX=0.5;exitY=1;exitDx=0;exitDy=0;" parent="1" edge="1">
          <mxGeometry relative="1" as="geometry">
            <mxPoint x="805" y="730" as="sourcePoint" />
            <mxPoint x="805" y="730" as="targetPoint" />
          </mxGeometry>
        </mxCell>
        <mxCell id="wYsSjvrQutidgcIgIWFu-82" value="Location" style="text;html=1;align=center;verticalAlign=middle;resizable=0;points=[];autosize=1;strokeColor=none;fillColor=none;" parent="1" vertex="1">
          <mxGeometry x="580" y="332.5" width="70" height="30" as="geometry" />
        </mxCell>
        <mxCell id="wYsSjvrQutidgcIgIWFu-166" value="attacktype1" style="text;html=1;align=center;verticalAlign=middle;resizable=0;points=[];autosize=1;strokeColor=none;fillColor=none;" parent="1" vertex="1">
          <mxGeometry x="810" y="263.25" width="80" height="30" as="geometry" />
        </mxCell>
        <mxCell id="wYsSjvrQutidgcIgIWFu-180" value="" style="ellipse;whiteSpace=wrap;html=1;aspect=fixed;" parent="1" vertex="1">
          <mxGeometry x="250" y="470" width="30" height="30" as="geometry" />
        </mxCell>
        <mxCell id="wYsSjvrQutidgcIgIWFu-184" value="" style="ellipse;whiteSpace=wrap;html=1;aspect=fixed;" parent="1" vertex="1">
          <mxGeometry x="270" y="307.5" width="30" height="30" as="geometry" />
        </mxCell>
        <mxCell id="wYsSjvrQutidgcIgIWFu-185" value="" style="ellipse;whiteSpace=wrap;html=1;aspect=fixed;" parent="1" vertex="1">
          <mxGeometry x="285" y="277.5" width="30" height="30" as="geometry" />
        </mxCell>
        <mxCell id="wYsSjvrQutidgcIgIWFu-186" value="" style="ellipse;whiteSpace=wrap;html=1;aspect=fixed;" parent="1" vertex="1">
          <mxGeometry x="305" y="250" width="30" height="30" as="geometry" />
        </mxCell>
        <mxCell id="wYsSjvrQutidgcIgIWFu-187" value="" style="ellipse;whiteSpace=wrap;html=1;aspect=fixed;" parent="1" vertex="1">
          <mxGeometry x="295" y="214" width="30" height="30" as="geometry" />
        </mxCell>
        <mxCell id="wYsSjvrQutidgcIgIWFu-188" value="" style="ellipse;whiteSpace=wrap;html=1;aspect=fixed;" parent="1" vertex="1">
          <mxGeometry x="325" y="184" width="30" height="30" as="geometry" />
        </mxCell>
        <mxCell id="wYsSjvrQutidgcIgIWFu-189" value="" style="ellipse;whiteSpace=wrap;html=1;aspect=fixed;" parent="1" vertex="1">
          <mxGeometry x="335" y="143.25" width="30" height="30" as="geometry" />
        </mxCell>
        <mxCell id="wYsSjvrQutidgcIgIWFu-190" value="" style="ellipse;whiteSpace=wrap;html=1;aspect=fixed;" parent="1" vertex="1">
          <mxGeometry x="360" y="113.25" width="30" height="30" as="geometry" />
        </mxCell>
        <mxCell id="wYsSjvrQutidgcIgIWFu-192" value="" style="ellipse;whiteSpace=wrap;html=1;aspect=fixed;" parent="1" vertex="1">
          <mxGeometry x="410" y="42.5" width="30" height="30" as="geometry" />
        </mxCell>
        <mxCell id="wYsSjvrQutidgcIgIWFu-196" value="nkill" style="text;html=1;align=center;verticalAlign=middle;resizable=0;points=[];autosize=1;strokeColor=none;fillColor=none;" parent="1" vertex="1">
          <mxGeometry x="375" y="37.5" width="40" height="30" as="geometry" />
        </mxCell>
        <mxCell id="wYsSjvrQutidgcIgIWFu-197" value="nwound" style="text;html=1;align=center;verticalAlign=middle;resizable=0;points=[];autosize=1;strokeColor=none;fillColor=none;" parent="1" vertex="1">
          <mxGeometry x="315" y="52.5" width="70" height="30" as="geometry" />
        </mxCell>
        <mxCell id="wYsSjvrQutidgcIgIWFu-198" value="nkillter" style="text;html=1;align=center;verticalAlign=middle;resizable=0;points=[];autosize=1;strokeColor=none;fillColor=none;" parent="1" vertex="1">
          <mxGeometry x="305" y="97.5" width="60" height="30" as="geometry" />
        </mxCell>
        <mxCell id="wYsSjvrQutidgcIgIWFu-199" value="nwoundter" style="text;html=1;align=center;verticalAlign=middle;resizable=0;points=[];autosize=1;strokeColor=none;fillColor=none;" parent="1" vertex="1">
          <mxGeometry x="255" y="136.5" width="80" height="30" as="geometry" />
        </mxCell>
        <mxCell id="wYsSjvrQutidgcIgIWFu-200" value="nkillus" style="text;html=1;align=center;verticalAlign=middle;resizable=0;points=[];autosize=1;strokeColor=none;fillColor=none;" parent="1" vertex="1">
          <mxGeometry x="270" y="170" width="60" height="30" as="geometry" />
        </mxCell>
        <mxCell id="wYsSjvrQutidgcIgIWFu-201" value="nwoundus" style="text;html=1;align=center;verticalAlign=middle;resizable=0;points=[];autosize=1;strokeColor=none;fillColor=none;" parent="1" vertex="1">
          <mxGeometry x="225" y="210" width="80" height="30" as="geometry" />
        </mxCell>
        <mxCell id="wYsSjvrQutidgcIgIWFu-202" value="propvalue" style="text;html=1;align=center;verticalAlign=middle;resizable=0;points=[];autosize=1;strokeColor=none;fillColor=none;" parent="1" vertex="1">
          <mxGeometry x="230" y="245" width="80" height="30" as="geometry" />
        </mxCell>
        <mxCell id="wYsSjvrQutidgcIgIWFu-203" value="success" style="text;html=1;align=center;verticalAlign=middle;resizable=0;points=[];autosize=1;strokeColor=none;fillColor=none;" parent="1" vertex="1">
          <mxGeometry x="215" y="270" width="70" height="30" as="geometry" />
        </mxCell>
        <mxCell id="wYsSjvrQutidgcIgIWFu-204" value="total_casualties" style="text;html=1;align=center;verticalAlign=middle;resizable=0;points=[];autosize=1;strokeColor=none;fillColor=none;" parent="1" vertex="1">
          <mxGeometry x="165" y="302.5" width="110" height="30" as="geometry" />
        </mxCell>
        <mxCell id="wYsSjvrQutidgcIgIWFu-205" value="consistency_flag" style="text;html=1;align=center;verticalAlign=middle;resizable=0;points=[];autosize=1;strokeColor=none;fillColor=none;" parent="1" vertex="1">
          <mxGeometry x="165" y="340" width="110" height="30" as="geometry" />
        </mxCell>
        <mxCell id="wYsSjvrQutidgcIgIWFu-207" value="high_impact" style="text;html=1;align=center;verticalAlign=middle;resizable=0;points=[];autosize=1;strokeColor=none;fillColor=none;" parent="1" vertex="1">
          <mxGeometry x="170" y="380" width="90" height="30" as="geometry" />
        </mxCell>
        <mxCell id="wYsSjvrQutidgcIgIWFu-208" value="us_casualty_imputed" style="text;html=1;align=center;verticalAlign=middle;resizable=0;points=[];autosize=1;strokeColor=none;fillColor=none;" parent="1" vertex="1">
          <mxGeometry x="110" y="430" width="140" height="30" as="geometry" />
        </mxCell>
        <mxCell id="wYsSjvrQutidgcIgIWFu-209" value="propvalue_imputed" style="text;html=1;align=center;verticalAlign=middle;resizable=0;points=[];autosize=1;strokeColor=none;fillColor=none;" parent="1" vertex="1">
          <mxGeometry x="205" y="500" width="130" height="30" as="geometry" />
        </mxCell>
        <mxCell id="wYsSjvrQutidgcIgIWFu-210" value="" style="endArrow=none;html=1;rounded=0;entryX=0.057;entryY=0.283;entryDx=0;entryDy=0;entryPerimeter=0;" parent="1" source="wYsSjvrQutidgcIgIWFu-183" edge="1">
          <mxGeometry width="50" height="50" relative="1" as="geometry">
            <mxPoint x="300" y="360" as="sourcePoint" />
            <mxPoint x="525.7000000000003" y="461.32000000000016" as="targetPoint" />
          </mxGeometry>
        </mxCell>
        <mxCell id="wYsSjvrQutidgcIgIWFu-211" value="" style="endArrow=none;html=1;rounded=0;entryX=0;entryY=0.5;entryDx=0;entryDy=0;" parent="1" source="wYsSjvrQutidgcIgIWFu-182" target="wYsSjvrQutidgcIgIWFu-370" edge="1">
          <mxGeometry width="50" height="50" relative="1" as="geometry">
            <mxPoint x="280" y="410" as="sourcePoint" />
            <mxPoint x="520.0000000000002" y="470" as="targetPoint" />
          </mxGeometry>
        </mxCell>
        <mxCell id="wYsSjvrQutidgcIgIWFu-212" value="" style="endArrow=none;html=1;rounded=0;entryX=0.044;entryY=0.679;entryDx=0;entryDy=0;entryPerimeter=0;" parent="1" source="wYsSjvrQutidgcIgIWFu-181" edge="1">
          <mxGeometry width="50" height="50" relative="1" as="geometry">
            <mxPoint x="270" y="440" as="sourcePoint" />
            <mxPoint x="524.4000000000003" y="477.1600000000001" as="targetPoint" />
          </mxGeometry>
        </mxCell>
        <mxCell id="wYsSjvrQutidgcIgIWFu-213" value="" style="endArrow=none;html=1;rounded=0;entryX=0.076;entryY=0.648;entryDx=0;entryDy=0;entryPerimeter=0;" parent="1" edge="1">
          <mxGeometry width="50" height="50" relative="1" as="geometry">
            <mxPoint x="280" y="480" as="sourcePoint" />
            <mxPoint x="527.6000000000001" y="475.9200000000001" as="targetPoint" />
          </mxGeometry>
        </mxCell>
        <mxCell id="wYsSjvrQutidgcIgIWFu-214" value="" style="endArrow=none;html=1;rounded=0;entryX=0.044;entryY=0.679;entryDx=0;entryDy=0;entryPerimeter=0;" parent="1" target="wYsSjvrQutidgcIgIWFu-181" edge="1">
          <mxGeometry width="50" height="50" relative="1" as="geometry">
            <mxPoint x="270" y="440" as="sourcePoint" />
            <mxPoint x="524" y="477" as="targetPoint" />
          </mxGeometry>
        </mxCell>
        <mxCell id="wYsSjvrQutidgcIgIWFu-181" value="" style="ellipse;whiteSpace=wrap;html=1;aspect=fixed;" parent="1" vertex="1">
          <mxGeometry x="240" y="420" width="30" height="30" as="geometry" />
        </mxCell>
        <mxCell id="wYsSjvrQutidgcIgIWFu-215" value="" style="endArrow=none;html=1;rounded=0;entryX=0;entryY=0.5;entryDx=0;entryDy=0;" parent="1" target="wYsSjvrQutidgcIgIWFu-182" edge="1">
          <mxGeometry width="50" height="50" relative="1" as="geometry">
            <mxPoint x="280" y="410" as="sourcePoint" />
            <mxPoint x="520" y="470" as="targetPoint" />
          </mxGeometry>
        </mxCell>
        <mxCell id="wYsSjvrQutidgcIgIWFu-182" value="" style="ellipse;whiteSpace=wrap;html=1;aspect=fixed;" parent="1" vertex="1">
          <mxGeometry x="255" y="384" width="30" height="30" as="geometry" />
        </mxCell>
        <mxCell id="wYsSjvrQutidgcIgIWFu-216" value="" style="endArrow=none;html=1;rounded=0;entryX=0.057;entryY=0.283;entryDx=0;entryDy=0;entryPerimeter=0;" parent="1" target="wYsSjvrQutidgcIgIWFu-183" edge="1">
          <mxGeometry width="50" height="50" relative="1" as="geometry">
            <mxPoint x="300" y="360" as="sourcePoint" />
            <mxPoint x="526" y="461" as="targetPoint" />
          </mxGeometry>
        </mxCell>
        <mxCell id="wYsSjvrQutidgcIgIWFu-183" value="" style="ellipse;whiteSpace=wrap;html=1;aspect=fixed;" parent="1" vertex="1">
          <mxGeometry x="270" y="345" width="30" height="30" as="geometry" />
        </mxCell>
        <mxCell id="wYsSjvrQutidgcIgIWFu-217" value="" style="endArrow=none;html=1;rounded=0;entryX=0.1;entryY=0.25;entryDx=0;entryDy=0;entryPerimeter=0;" parent="1" edge="1">
          <mxGeometry width="50" height="50" relative="1" as="geometry">
            <mxPoint x="300" y="320" as="sourcePoint" />
            <mxPoint x="530.0000000000002" y="460" as="targetPoint" />
          </mxGeometry>
        </mxCell>
        <mxCell id="wYsSjvrQutidgcIgIWFu-218" value="" style="endArrow=none;html=1;rounded=0;entryX=0.094;entryY=0.362;entryDx=0;entryDy=0;entryPerimeter=0;" parent="1" edge="1">
          <mxGeometry width="50" height="50" relative="1" as="geometry">
            <mxPoint x="310" y="300" as="sourcePoint" />
            <mxPoint x="529.4000000000003" y="464.48" as="targetPoint" />
          </mxGeometry>
        </mxCell>
        <mxCell id="wYsSjvrQutidgcIgIWFu-219" value="" style="endArrow=none;html=1;rounded=0;entryX=0.202;entryY=0.14;entryDx=0;entryDy=0;entryPerimeter=0;exitX=1;exitY=1;exitDx=0;exitDy=0;" parent="1" source="wYsSjvrQutidgcIgIWFu-186" edge="1">
          <mxGeometry width="50" height="50" relative="1" as="geometry">
            <mxPoint x="330" y="280" as="sourcePoint" />
            <mxPoint x="540.2" y="455.60000000000014" as="targetPoint" />
          </mxGeometry>
        </mxCell>
        <mxCell id="wYsSjvrQutidgcIgIWFu-220" value="" style="endArrow=none;html=1;rounded=0;entryX=0.233;entryY=0.156;entryDx=0;entryDy=0;entryPerimeter=0;exitX=1;exitY=0.5;exitDx=0;exitDy=0;" parent="1" source="wYsSjvrQutidgcIgIWFu-187" edge="1">
          <mxGeometry width="50" height="50" relative="1" as="geometry">
            <mxPoint x="330" y="220" as="sourcePoint" />
            <mxPoint x="543.3000000000002" y="456.24" as="targetPoint" />
          </mxGeometry>
        </mxCell>
        <mxCell id="wYsSjvrQutidgcIgIWFu-221" value="" style="endArrow=none;html=1;rounded=0;" parent="1" edge="1">
          <mxGeometry width="50" height="50" relative="1" as="geometry">
            <mxPoint x="350" y="210" as="sourcePoint" />
            <mxPoint x="540" y="460" as="targetPoint" />
          </mxGeometry>
        </mxCell>
        <mxCell id="wYsSjvrQutidgcIgIWFu-223" value="" style="endArrow=none;html=1;rounded=0;entryX=0.335;entryY=0.013;entryDx=0;entryDy=0;entryPerimeter=0;" parent="1" edge="1">
          <mxGeometry width="50" height="50" relative="1" as="geometry">
            <mxPoint x="360" y="170" as="sourcePoint" />
            <mxPoint x="553.5" y="450.52" as="targetPoint" />
          </mxGeometry>
        </mxCell>
        <mxCell id="wYsSjvrQutidgcIgIWFu-224" value="" style="endArrow=none;html=1;rounded=0;entryX=0.373;entryY=0.076;entryDx=0;entryDy=0;entryPerimeter=0;" parent="1" edge="1">
          <mxGeometry width="50" height="50" relative="1" as="geometry">
            <mxPoint x="380" y="140" as="sourcePoint" />
            <mxPoint x="557.3000000000004" y="453.03999999999996" as="targetPoint" />
          </mxGeometry>
        </mxCell>
        <mxCell id="wYsSjvrQutidgcIgIWFu-228" value="" style="endArrow=none;html=1;rounded=0;entryX=0.367;entryY=0.251;entryDx=0;entryDy=0;entryPerimeter=0;" parent="1" source="wYsSjvrQutidgcIgIWFu-191" edge="1">
          <mxGeometry width="50" height="50" relative="1" as="geometry">
            <mxPoint x="400" y="90" as="sourcePoint" />
            <mxPoint x="556.7" y="460.03999999999996" as="targetPoint" />
          </mxGeometry>
        </mxCell>
        <mxCell id="wYsSjvrQutidgcIgIWFu-229" value="" style="endArrow=none;html=1;rounded=0;" parent="1" edge="1">
          <mxGeometry width="50" height="50" relative="1" as="geometry">
            <mxPoint x="430" y="70" as="sourcePoint" />
            <mxPoint x="560" y="450" as="targetPoint" />
          </mxGeometry>
        </mxCell>
        <mxCell id="wYsSjvrQutidgcIgIWFu-230" value="" style="endArrow=none;html=1;rounded=0;entryX=0.367;entryY=0.251;entryDx=0;entryDy=0;entryPerimeter=0;" parent="1" target="wYsSjvrQutidgcIgIWFu-191" edge="1">
          <mxGeometry width="50" height="50" relative="1" as="geometry">
            <mxPoint x="400" y="90" as="sourcePoint" />
            <mxPoint x="557" y="460" as="targetPoint" />
          </mxGeometry>
        </mxCell>
        <mxCell id="wYsSjvrQutidgcIgIWFu-191" value="" style="ellipse;whiteSpace=wrap;html=1;aspect=fixed;direction=south;" parent="1" vertex="1">
          <mxGeometry x="375" y="67.5" width="30" height="30" as="geometry" />
        </mxCell>
        <mxCell id="wYsSjvrQutidgcIgIWFu-232" value="" style="ellipse;whiteSpace=wrap;html=1;aspect=fixed;" parent="1" vertex="1">
          <mxGeometry x="225" y="610" width="30" height="30" as="geometry" />
        </mxCell>
        <mxCell id="wYsSjvrQutidgcIgIWFu-234" value="" style="ellipse;whiteSpace=wrap;html=1;aspect=fixed;" parent="1" vertex="1">
          <mxGeometry x="305" y="578" width="30" height="30" as="geometry" />
        </mxCell>
        <mxCell id="wYsSjvrQutidgcIgIWFu-235" value="" style="ellipse;whiteSpace=wrap;html=1;aspect=fixed;" parent="1" vertex="1">
          <mxGeometry x="400" y="550" width="30" height="30" as="geometry" />
        </mxCell>
        <mxCell id="wYsSjvrQutidgcIgIWFu-236" value="day" style="text;html=1;align=center;verticalAlign=middle;resizable=0;points=[];autosize=1;strokeColor=none;fillColor=none;" parent="1" vertex="1">
          <mxGeometry x="215" y="578" width="40" height="30" as="geometry" />
        </mxCell>
        <mxCell id="wYsSjvrQutidgcIgIWFu-237" value="month" style="text;html=1;align=center;verticalAlign=middle;resizable=0;points=[];autosize=1;strokeColor=none;fillColor=none;" parent="1" vertex="1">
          <mxGeometry x="260" y="555" width="60" height="30" as="geometry" />
        </mxCell>
        <mxCell id="wYsSjvrQutidgcIgIWFu-238" value="year" style="text;html=1;align=center;verticalAlign=middle;resizable=0;points=[];autosize=1;strokeColor=none;fillColor=none;" parent="1" vertex="1">
          <mxGeometry x="355" y="525" width="50" height="30" as="geometry" />
        </mxCell>
        <mxCell id="wYsSjvrQutidgcIgIWFu-241" value="" style="endArrow=none;html=1;rounded=0;exitX=1;exitY=0;exitDx=0;exitDy=0;entryX=0;entryY=0.5;entryDx=0;entryDy=0;" parent="1" source="wYsSjvrQutidgcIgIWFu-235" target="wYsSjvrQutidgcIgIWFu-370" edge="1">
          <mxGeometry width="50" height="50" relative="1" as="geometry">
            <mxPoint x="420" y="560" as="sourcePoint" />
            <mxPoint x="530" y="480" as="targetPoint" />
          </mxGeometry>
        </mxCell>
        <mxCell id="wYsSjvrQutidgcIgIWFu-242" value="" style="endArrow=none;html=1;rounded=0;exitX=1;exitY=0;exitDx=0;exitDy=0;" parent="1" source="wYsSjvrQutidgcIgIWFu-234" edge="1">
          <mxGeometry width="50" height="50" relative="1" as="geometry">
            <mxPoint x="350" y="620" as="sourcePoint" />
            <mxPoint x="400" y="570" as="targetPoint" />
          </mxGeometry>
        </mxCell>
        <mxCell id="wYsSjvrQutidgcIgIWFu-243" value="" style="endArrow=none;html=1;rounded=0;exitX=1;exitY=0.5;exitDx=0;exitDy=0;" parent="1" source="wYsSjvrQutidgcIgIWFu-232" edge="1">
          <mxGeometry width="50" height="50" relative="1" as="geometry">
            <mxPoint x="260" y="650" as="sourcePoint" />
            <mxPoint x="310" y="600" as="targetPoint" />
          </mxGeometry>
        </mxCell>
        <mxCell id="wYsSjvrQutidgcIgIWFu-244" value="" style="ellipse;whiteSpace=wrap;html=1;aspect=fixed;" parent="1" vertex="1">
          <mxGeometry x="480" y="578" width="30" height="30" as="geometry" />
        </mxCell>
        <mxCell id="wYsSjvrQutidgcIgIWFu-245" value="extended" style="text;html=1;align=center;verticalAlign=middle;resizable=0;points=[];autosize=1;strokeColor=none;fillColor=none;" parent="1" vertex="1">
          <mxGeometry x="455" y="598" width="70" height="30" as="geometry" />
        </mxCell>
        <mxCell id="wYsSjvrQutidgcIgIWFu-246" value="" style="endArrow=none;html=1;rounded=0;entryX=0.27;entryY=0.97;entryDx=0;entryDy=0;entryPerimeter=0;exitX=1;exitY=0;exitDx=0;exitDy=0;" parent="1" source="wYsSjvrQutidgcIgIWFu-244" edge="1">
          <mxGeometry width="50" height="50" relative="1" as="geometry">
            <mxPoint x="370" y="600" as="sourcePoint" />
            <mxPoint x="547.0000000000002" y="488.79999999999995" as="targetPoint" />
          </mxGeometry>
        </mxCell>
        <mxCell id="wYsSjvrQutidgcIgIWFu-248" value="" style="ellipse;whiteSpace=wrap;html=1;aspect=fixed;" parent="1" vertex="1">
          <mxGeometry x="395" y="680" width="30" height="30" as="geometry" />
        </mxCell>
        <mxCell id="wYsSjvrQutidgcIgIWFu-249" value="" style="ellipse;whiteSpace=wrap;html=1;aspect=fixed;" parent="1" vertex="1">
          <mxGeometry x="360" y="770" width="30" height="30" as="geometry" />
        </mxCell>
        <mxCell id="wYsSjvrQutidgcIgIWFu-250" value="" style="ellipse;whiteSpace=wrap;html=1;aspect=fixed;" parent="1" vertex="1">
          <mxGeometry x="450" y="730" width="30" height="30" as="geometry" />
        </mxCell>
        <mxCell id="wYsSjvrQutidgcIgIWFu-251" value="" style="ellipse;whiteSpace=wrap;html=1;aspect=fixed;" parent="1" vertex="1">
          <mxGeometry x="540" y="650" width="30" height="30" as="geometry" />
        </mxCell>
        <mxCell id="wYsSjvrQutidgcIgIWFu-253" value="extent" style="text;html=1;align=center;verticalAlign=middle;resizable=0;points=[];autosize=1;strokeColor=none;fillColor=none;" parent="1" vertex="1">
          <mxGeometry x="380" y="658" width="60" height="30" as="geometry" />
        </mxCell>
        <mxCell id="wYsSjvrQutidgcIgIWFu-254" value="Property" style="text;html=1;align=center;verticalAlign=middle;resizable=0;points=[];autosize=1;strokeColor=none;fillColor=none;" parent="1" vertex="1">
          <mxGeometry x="514" y="780" width="70" height="30" as="geometry" />
        </mxCell>
        <mxCell id="wYsSjvrQutidgcIgIWFu-256" value="&lt;span style=&quot;font-size: 14px;&quot;&gt;propvalue_category&lt;/span&gt;" style="text;html=1;align=center;verticalAlign=middle;resizable=0;points=[];autosize=1;strokeColor=none;fillColor=none;" parent="1" vertex="1">
          <mxGeometry x="305" y="748" width="150" height="30" as="geometry" />
        </mxCell>
        <mxCell id="wYsSjvrQutidgcIgIWFu-262" value="Propvalue" style="text;html=1;align=center;verticalAlign=middle;resizable=0;points=[];autosize=1;strokeColor=none;fillColor=none;" parent="1" vertex="1">
          <mxGeometry x="440" y="698" width="80" height="30" as="geometry" />
        </mxCell>
        <mxCell id="wYsSjvrQutidgcIgIWFu-264" value="Propertyid" style="text;html=1;align=center;verticalAlign=middle;resizable=0;points=[];autosize=1;strokeColor=none;fillColor=none;" parent="1" vertex="1">
          <mxGeometry x="520" y="628" width="80" height="30" as="geometry" />
        </mxCell>
        <mxCell id="wYsSjvrQutidgcIgIWFu-265" value="" style="endArrow=none;html=1;rounded=0;entryX=0;entryY=0.5;entryDx=0;entryDy=0;exitX=1;exitY=0.5;exitDx=0;exitDy=0;" parent="1" source="wYsSjvrQutidgcIgIWFu-248" target="wYsSjvrQutidgcIgIWFu-251" edge="1">
          <mxGeometry width="50" height="50" relative="1" as="geometry">
            <mxPoint x="430" y="700" as="sourcePoint" />
            <mxPoint x="420" y="670" as="targetPoint" />
          </mxGeometry>
        </mxCell>
        <mxCell id="wYsSjvrQutidgcIgIWFu-267" value="" style="endArrow=none;html=1;rounded=0;entryX=0;entryY=1;entryDx=0;entryDy=0;exitX=0.5;exitY=0;exitDx=0;exitDy=0;" parent="1" source="wYsSjvrQutidgcIgIWFu-250" target="wYsSjvrQutidgcIgIWFu-251" edge="1">
          <mxGeometry width="50" height="50" relative="1" as="geometry">
            <mxPoint x="370" y="720" as="sourcePoint" />
            <mxPoint x="420" y="670" as="targetPoint" />
          </mxGeometry>
        </mxCell>
        <mxCell id="wYsSjvrQutidgcIgIWFu-269" value="" style="endArrow=none;html=1;rounded=0;" parent="1" edge="1">
          <mxGeometry width="50" height="50" relative="1" as="geometry">
            <mxPoint x="390" y="784" as="sourcePoint" />
            <mxPoint x="450" y="750" as="targetPoint" />
          </mxGeometry>
        </mxCell>
        <mxCell id="wYsSjvrQutidgcIgIWFu-270" value="" style="endArrow=none;html=1;rounded=0;exitX=0.616;exitY=0.955;exitDx=0;exitDy=0;exitPerimeter=0;entryX=0.5;entryY=1;entryDx=0;entryDy=0;" parent="1" source="wYsSjvrQutidgcIgIWFu-264" edge="1">
          <mxGeometry width="50" height="50" relative="1" as="geometry">
            <mxPoint x="370" y="600" as="sourcePoint" />
            <mxPoint x="570.0000000000002" y="490" as="targetPoint" />
          </mxGeometry>
        </mxCell>
        <mxCell id="wYsSjvrQutidgcIgIWFu-271" value="" style="ellipse;whiteSpace=wrap;html=1;aspect=fixed;" parent="1" vertex="1">
          <mxGeometry x="640" y="740" width="30" height="30" as="geometry" />
        </mxCell>
        <mxCell id="wYsSjvrQutidgcIgIWFu-272" value="" style="ellipse;whiteSpace=wrap;html=1;aspect=fixed;" parent="1" vertex="1">
          <mxGeometry x="720" y="730" width="30" height="30" as="geometry" />
        </mxCell>
        <mxCell id="wYsSjvrQutidgcIgIWFu-273" value="" style="ellipse;whiteSpace=wrap;html=1;aspect=fixed;" parent="1" vertex="1">
          <mxGeometry x="770" y="690" width="30" height="30" as="geometry" />
        </mxCell>
        <mxCell id="wYsSjvrQutidgcIgIWFu-275" value="&lt;span style=&quot;font-size: 14px;&quot;&gt;group_name&lt;/span&gt;" style="text;html=1;align=center;verticalAlign=middle;resizable=0;points=[];autosize=1;strokeColor=none;fillColor=none;" parent="1" vertex="1">
          <mxGeometry x="610" y="768" width="100" height="30" as="geometry" />
        </mxCell>
        <mxCell id="wYsSjvrQutidgcIgIWFu-278" value="&lt;span style=&quot;font-size: 14px;&quot;&gt;uncertainty&lt;/span&gt;" style="text;html=1;align=center;verticalAlign=middle;resizable=0;points=[];autosize=1;strokeColor=none;fillColor=none;" parent="1" vertex="1">
          <mxGeometry x="710" y="760" width="90" height="30" as="geometry" />
        </mxCell>
        <mxCell id="wYsSjvrQutidgcIgIWFu-279" value="&lt;span style=&quot;font-size: 14px;&quot;&gt;unknown_group_flag&lt;/span&gt;" style="text;html=1;align=center;verticalAlign=middle;resizable=0;points=[];autosize=1;strokeColor=none;fillColor=none;" parent="1" vertex="1">
          <mxGeometry x="775" y="718" width="150" height="30" as="geometry" />
        </mxCell>
        <mxCell id="wYsSjvrQutidgcIgIWFu-280" value="" style="ellipse;whiteSpace=wrap;html=1;aspect=fixed;" parent="1" vertex="1">
          <mxGeometry x="660" y="548" width="30" height="30" as="geometry" />
        </mxCell>
        <mxCell id="wYsSjvrQutidgcIgIWFu-285" value="&lt;span style=&quot;font-size: 14px;&quot;&gt;TerroristGroup&lt;/span&gt;" style="text;html=1;align=center;verticalAlign=middle;resizable=0;points=[];autosize=1;strokeColor=none;fillColor=none;" parent="1" vertex="1">
          <mxGeometry x="560" y="548" width="110" height="30" as="geometry" />
        </mxCell>
        <mxCell id="wYsSjvrQutidgcIgIWFu-287" value="" style="endArrow=none;html=1;rounded=0;entryX=0.5;entryY=1;entryDx=0;entryDy=0;exitX=1.022;exitY=0.092;exitDx=0;exitDy=0;exitPerimeter=0;" parent="1" source="wYsSjvrQutidgcIgIWFu-285" target="wYsSjvrQutidgcIgIWFu-370" edge="1">
          <mxGeometry width="50" height="50" relative="1" as="geometry">
            <mxPoint x="620" y="600" as="sourcePoint" />
            <mxPoint x="570.0000000000002" y="490" as="targetPoint" />
          </mxGeometry>
        </mxCell>
        <mxCell id="wYsSjvrQutidgcIgIWFu-288" value="" style="endArrow=none;html=1;rounded=0;exitX=0.5;exitY=0;exitDx=0;exitDy=0;entryX=1;entryY=1;entryDx=0;entryDy=0;" parent="1" source="wYsSjvrQutidgcIgIWFu-271" target="wYsSjvrQutidgcIgIWFu-280" edge="1">
          <mxGeometry width="50" height="50" relative="1" as="geometry">
            <mxPoint x="620" y="600" as="sourcePoint" />
            <mxPoint x="670" y="580" as="targetPoint" />
          </mxGeometry>
        </mxCell>
        <mxCell id="wYsSjvrQutidgcIgIWFu-290" value="" style="endArrow=none;html=1;rounded=0;exitX=0.5;exitY=0;exitDx=0;exitDy=0;entryX=1;entryY=1;entryDx=0;entryDy=0;" parent="1" source="wYsSjvrQutidgcIgIWFu-272" target="wYsSjvrQutidgcIgIWFu-280" edge="1">
          <mxGeometry width="50" height="50" relative="1" as="geometry">
            <mxPoint x="620" y="600" as="sourcePoint" />
            <mxPoint x="670" y="550" as="targetPoint" />
          </mxGeometry>
        </mxCell>
        <mxCell id="wYsSjvrQutidgcIgIWFu-291" value="" style="endArrow=none;html=1;rounded=0;exitX=0.5;exitY=0;exitDx=0;exitDy=0;entryX=1;entryY=0.5;entryDx=0;entryDy=0;" parent="1" source="wYsSjvrQutidgcIgIWFu-273" target="wYsSjvrQutidgcIgIWFu-280" edge="1">
          <mxGeometry width="50" height="50" relative="1" as="geometry">
            <mxPoint x="620" y="600" as="sourcePoint" />
            <mxPoint x="690" y="580" as="targetPoint" />
          </mxGeometry>
        </mxCell>
        <mxCell id="wYsSjvrQutidgcIgIWFu-292" value="" style="ellipse;whiteSpace=wrap;html=1;aspect=fixed;" parent="1" vertex="1">
          <mxGeometry x="540" y="210" width="30" height="30" as="geometry" />
        </mxCell>
        <mxCell id="wYsSjvrQutidgcIgIWFu-293" value="&lt;span style=&quot;font-size: 14px;&quot;&gt;unknown_location_flag&lt;/span&gt;" style="text;html=1;align=center;verticalAlign=middle;resizable=0;points=[];autosize=1;strokeColor=none;fillColor=none;" parent="1" vertex="1">
          <mxGeometry x="465" y="188" width="170" height="30" as="geometry" />
        </mxCell>
        <mxCell id="wYsSjvrQutidgcIgIWFu-294" value="" style="endArrow=none;html=1;rounded=0;exitX=0.403;exitY=0.088;exitDx=0;exitDy=0;exitPerimeter=0;" parent="1" edge="1">
          <mxGeometry width="50" height="50" relative="1" as="geometry">
            <mxPoint x="560.3000000000002" y="453.52" as="sourcePoint" />
            <mxPoint x="560" y="240" as="targetPoint" />
          </mxGeometry>
        </mxCell>
        <mxCell id="wYsSjvrQutidgcIgIWFu-297" value="" style="ellipse;whiteSpace=wrap;html=1;aspect=fixed;" parent="1" vertex="1">
          <mxGeometry x="590" y="370" width="30" height="30" as="geometry" />
        </mxCell>
        <mxCell id="wYsSjvrQutidgcIgIWFu-298" value="" style="ellipse;whiteSpace=wrap;html=1;aspect=fixed;" parent="1" vertex="1">
          <mxGeometry x="650" y="290" width="30" height="30" as="geometry" />
        </mxCell>
        <mxCell id="wYsSjvrQutidgcIgIWFu-299" value="" style="ellipse;whiteSpace=wrap;html=1;aspect=fixed;" parent="1" vertex="1">
          <mxGeometry x="690" y="240" width="30" height="30" as="geometry" />
        </mxCell>
        <mxCell id="wYsSjvrQutidgcIgIWFu-300" value="" style="ellipse;whiteSpace=wrap;html=1;aspect=fixed;" parent="1" vertex="1">
          <mxGeometry x="760" y="190" width="30" height="30" as="geometry" />
        </mxCell>
        <mxCell id="wYsSjvrQutidgcIgIWFu-301" value="" style="ellipse;whiteSpace=wrap;html=1;aspect=fixed;" parent="1" vertex="1">
          <mxGeometry x="840" y="150" width="30" height="30" as="geometry" />
        </mxCell>
        <mxCell id="wYsSjvrQutidgcIgIWFu-304" value="&lt;span style=&quot;font-size: 14px;&quot;&gt;region&lt;/span&gt;" style="text;html=1;align=center;verticalAlign=middle;resizable=0;points=[];autosize=1;strokeColor=none;fillColor=none;" parent="1" vertex="1">
          <mxGeometry x="610" y="278" width="60" height="30" as="geometry" />
        </mxCell>
        <mxCell id="wYsSjvrQutidgcIgIWFu-305" value="&lt;span style=&quot;font-size: 14px;&quot;&gt;country&lt;/span&gt;" style="text;html=1;align=center;verticalAlign=middle;resizable=0;points=[];autosize=1;strokeColor=none;fillColor=none;" parent="1" vertex="1">
          <mxGeometry x="625" y="218" width="70" height="30" as="geometry" />
        </mxCell>
        <mxCell id="wYsSjvrQutidgcIgIWFu-309" value="&lt;span style=&quot;font-size: 14px;&quot;&gt;provstate&lt;/span&gt;" style="text;html=1;align=center;verticalAlign=middle;resizable=0;points=[];autosize=1;strokeColor=none;fillColor=none;" parent="1" vertex="1">
          <mxGeometry x="700" y="168" width="80" height="30" as="geometry" />
        </mxCell>
        <mxCell id="wYsSjvrQutidgcIgIWFu-310" value="&lt;span style=&quot;font-size: 14px;&quot;&gt;city&lt;/span&gt;" style="text;html=1;align=center;verticalAlign=middle;resizable=0;points=[];autosize=1;strokeColor=none;fillColor=none;" parent="1" vertex="1">
          <mxGeometry x="800" y="128" width="40" height="30" as="geometry" />
        </mxCell>
        <mxCell id="wYsSjvrQutidgcIgIWFu-311" value="" style="endArrow=none;html=1;rounded=0;exitX=0.5;exitY=0;exitDx=0;exitDy=0;entryX=0.5;entryY=1;entryDx=0;entryDy=0;" parent="1" source="wYsSjvrQutidgcIgIWFu-370" target="wYsSjvrQutidgcIgIWFu-297" edge="1">
          <mxGeometry width="50" height="50" relative="1" as="geometry">
            <mxPoint x="570.0000000000002" y="450" as="sourcePoint" />
            <mxPoint x="780" y="470" as="targetPoint" />
          </mxGeometry>
        </mxCell>
        <mxCell id="wYsSjvrQutidgcIgIWFu-314" value="" style="endArrow=none;html=1;rounded=0;exitX=1;exitY=0;exitDx=0;exitDy=0;entryX=0.5;entryY=1;entryDx=0;entryDy=0;" parent="1" source="wYsSjvrQutidgcIgIWFu-297" target="wYsSjvrQutidgcIgIWFu-298" edge="1">
          <mxGeometry width="50" height="50" relative="1" as="geometry">
            <mxPoint x="610" y="370" as="sourcePoint" />
            <mxPoint x="645" y="320" as="targetPoint" />
          </mxGeometry>
        </mxCell>
        <mxCell id="wYsSjvrQutidgcIgIWFu-315" value="" style="endArrow=none;html=1;rounded=0;exitX=1;exitY=0;exitDx=0;exitDy=0;entryX=0;entryY=1;entryDx=0;entryDy=0;" parent="1" source="wYsSjvrQutidgcIgIWFu-298" target="wYsSjvrQutidgcIgIWFu-299" edge="1">
          <mxGeometry width="50" height="50" relative="1" as="geometry">
            <mxPoint x="710" y="330" as="sourcePoint" />
            <mxPoint x="745" y="280" as="targetPoint" />
          </mxGeometry>
        </mxCell>
        <mxCell id="wYsSjvrQutidgcIgIWFu-316" value="" style="endArrow=none;html=1;rounded=0;exitX=0.5;exitY=0;exitDx=0;exitDy=0;entryX=0;entryY=0.5;entryDx=0;entryDy=0;" parent="1" source="wYsSjvrQutidgcIgIWFu-299" target="wYsSjvrQutidgcIgIWFu-300" edge="1">
          <mxGeometry width="50" height="50" relative="1" as="geometry">
            <mxPoint x="760" y="270" as="sourcePoint" />
            <mxPoint x="795" y="220" as="targetPoint" />
          </mxGeometry>
        </mxCell>
        <mxCell id="wYsSjvrQutidgcIgIWFu-317" value="" style="endArrow=none;html=1;rounded=0;exitX=1;exitY=0;exitDx=0;exitDy=0;entryX=0;entryY=1;entryDx=0;entryDy=0;" parent="1" source="wYsSjvrQutidgcIgIWFu-300" target="wYsSjvrQutidgcIgIWFu-301" edge="1">
          <mxGeometry width="50" height="50" relative="1" as="geometry">
            <mxPoint x="840" y="250" as="sourcePoint" />
            <mxPoint x="875" y="200" as="targetPoint" />
          </mxGeometry>
        </mxCell>
        <mxCell id="wYsSjvrQutidgcIgIWFu-318" value="" style="ellipse;whiteSpace=wrap;html=1;aspect=fixed;" parent="1" vertex="1">
          <mxGeometry x="875" y="98" width="30" height="30" as="geometry" />
        </mxCell>
        <mxCell id="wYsSjvrQutidgcIgIWFu-322" value="&lt;span style=&quot;font-size: 14px;&quot;&gt;vicinity&lt;/span&gt;" style="text;html=1;align=center;verticalAlign=middle;resizable=0;points=[];autosize=1;strokeColor=none;fillColor=none;" parent="1" vertex="1">
          <mxGeometry x="835" y="78" width="70" height="30" as="geometry" />
        </mxCell>
        <mxCell id="wYsSjvrQutidgcIgIWFu-323" value="" style="ellipse;whiteSpace=wrap;html=1;aspect=fixed;" parent="1" vertex="1">
          <mxGeometry x="930" y="30" width="30" height="30" as="geometry" />
        </mxCell>
        <mxCell id="wYsSjvrQutidgcIgIWFu-324" value="" style="ellipse;whiteSpace=wrap;html=1;aspect=fixed;" parent="1" vertex="1">
          <mxGeometry x="955" y="106.5" width="30" height="30" as="geometry" />
        </mxCell>
        <mxCell id="wYsSjvrQutidgcIgIWFu-330" value="&lt;span style=&quot;font-size: 14px;&quot;&gt;latitude&lt;/span&gt;" style="text;html=1;align=center;verticalAlign=middle;resizable=0;points=[];autosize=1;strokeColor=none;fillColor=none;" parent="1" vertex="1">
          <mxGeometry x="970" y="120" width="70" height="30" as="geometry" />
        </mxCell>
        <mxCell id="wYsSjvrQutidgcIgIWFu-333" value="&lt;span style=&quot;font-size: 14px;&quot;&gt;longitude&lt;/span&gt;" style="text;html=1;align=center;verticalAlign=middle;resizable=0;points=[];autosize=1;strokeColor=none;fillColor=none;" parent="1" vertex="1">
          <mxGeometry x="930" y="48" width="80" height="30" as="geometry" />
        </mxCell>
        <mxCell id="wYsSjvrQutidgcIgIWFu-334" value="" style="endArrow=none;html=1;rounded=0;entryX=0;entryY=1;entryDx=0;entryDy=0;" parent="1" target="wYsSjvrQutidgcIgIWFu-318" edge="1">
          <mxGeometry width="50" height="50" relative="1" as="geometry">
            <mxPoint x="860" y="150" as="sourcePoint" />
            <mxPoint x="880" y="130" as="targetPoint" />
          </mxGeometry>
        </mxCell>
        <mxCell id="wYsSjvrQutidgcIgIWFu-336" value="" style="endArrow=none;html=1;rounded=0;exitX=0.075;exitY=0.21;exitDx=0;exitDy=0;exitPerimeter=0;entryX=0.961;entryY=0.961;entryDx=0;entryDy=0;entryPerimeter=0;" parent="1" source="wYsSjvrQutidgcIgIWFu-333" target="wYsSjvrQutidgcIgIWFu-322" edge="1">
          <mxGeometry width="50" height="50" relative="1" as="geometry">
            <mxPoint x="680" y="250" as="sourcePoint" />
            <mxPoint x="730" y="200" as="targetPoint" />
          </mxGeometry>
        </mxCell>
        <mxCell id="wYsSjvrQutidgcIgIWFu-338" value="" style="endArrow=none;html=1;rounded=0;entryX=0;entryY=0;entryDx=0;entryDy=0;" parent="1" target="wYsSjvrQutidgcIgIWFu-324" edge="1">
          <mxGeometry width="50" height="50" relative="1" as="geometry">
            <mxPoint x="900" y="122" as="sourcePoint" />
            <mxPoint x="950" y="120" as="targetPoint" />
          </mxGeometry>
        </mxCell>
        <mxCell id="wYsSjvrQutidgcIgIWFu-340" value="" style="ellipse;whiteSpace=wrap;html=1;aspect=fixed;" parent="1" vertex="1">
          <mxGeometry x="730" y="470" width="30" height="30" as="geometry" />
        </mxCell>
        <mxCell id="wYsSjvrQutidgcIgIWFu-341" value="" style="ellipse;whiteSpace=wrap;html=1;aspect=fixed;" parent="1" vertex="1">
          <mxGeometry x="775" y="548" width="30" height="30" as="geometry" />
        </mxCell>
        <mxCell id="wYsSjvrQutidgcIgIWFu-342" value="" style="ellipse;whiteSpace=wrap;html=1;aspect=fixed;" parent="1" vertex="1">
          <mxGeometry x="840" y="500" width="30" height="30" as="geometry" />
        </mxCell>
        <mxCell id="wYsSjvrQutidgcIgIWFu-343" value="" style="ellipse;whiteSpace=wrap;html=1;aspect=fixed;" parent="1" vertex="1">
          <mxGeometry x="970" y="460" width="30" height="30" as="geometry" />
        </mxCell>
        <mxCell id="wYsSjvrQutidgcIgIWFu-344" value="&lt;span style=&quot;font-size: 14px;&quot;&gt;nationality&lt;/span&gt;" style="text;html=1;align=center;verticalAlign=middle;resizable=0;points=[];autosize=1;strokeColor=none;fillColor=none;" parent="1" vertex="1">
          <mxGeometry x="770" y="578" width="90" height="30" as="geometry" />
        </mxCell>
        <mxCell id="wYsSjvrQutidgcIgIWFu-345" value="&lt;span style=&quot;font-size: 14px;&quot;&gt;target_subtype&lt;/span&gt;" style="text;html=1;align=center;verticalAlign=middle;resizable=0;points=[];autosize=1;strokeColor=none;fillColor=none;" parent="1" vertex="1">
          <mxGeometry x="810" y="530" width="120" height="30" as="geometry" />
        </mxCell>
        <mxCell id="wYsSjvrQutidgcIgIWFu-346" value="&lt;span style=&quot;font-size: 14px;&quot;&gt;target_type&lt;/span&gt;" style="text;html=1;align=center;verticalAlign=middle;resizable=0;points=[];autosize=1;strokeColor=none;fillColor=none;" parent="1" vertex="1">
          <mxGeometry x="985" y="480" width="90" height="30" as="geometry" />
        </mxCell>
        <mxCell id="wYsSjvrQutidgcIgIWFu-348" value="" style="endArrow=none;html=1;rounded=0;exitX=0.5;exitY=0;exitDx=0;exitDy=0;entryX=1;entryY=1;entryDx=0;entryDy=0;" parent="1" source="wYsSjvrQutidgcIgIWFu-341" target="wYsSjvrQutidgcIgIWFu-340" edge="1">
          <mxGeometry width="50" height="50" relative="1" as="geometry">
            <mxPoint x="710" y="520" as="sourcePoint" />
            <mxPoint x="760" y="470" as="targetPoint" />
          </mxGeometry>
        </mxCell>
        <mxCell id="wYsSjvrQutidgcIgIWFu-349" value="" style="endArrow=none;html=1;rounded=0;exitX=0;exitY=0;exitDx=0;exitDy=0;entryX=1;entryY=0.5;entryDx=0;entryDy=0;" parent="1" source="wYsSjvrQutidgcIgIWFu-342" target="wYsSjvrQutidgcIgIWFu-340" edge="1">
          <mxGeometry width="50" height="50" relative="1" as="geometry">
            <mxPoint x="720" y="510" as="sourcePoint" />
            <mxPoint x="770" y="460" as="targetPoint" />
          </mxGeometry>
        </mxCell>
        <mxCell id="wYsSjvrQutidgcIgIWFu-350" value="" style="endArrow=none;html=1;rounded=0;exitX=1;exitY=0;exitDx=0;exitDy=0;entryX=0;entryY=0.5;entryDx=0;entryDy=0;" parent="1" source="wYsSjvrQutidgcIgIWFu-342" target="wYsSjvrQutidgcIgIWFu-343" edge="1">
          <mxGeometry width="50" height="50" relative="1" as="geometry">
            <mxPoint x="840" y="510" as="sourcePoint" />
            <mxPoint x="890" y="460" as="targetPoint" />
          </mxGeometry>
        </mxCell>
        <mxCell id="wYsSjvrQutidgcIgIWFu-353" value="&lt;span style=&quot;font-size: 14px;&quot;&gt;TargetType&lt;/span&gt;" style="text;html=1;align=center;verticalAlign=middle;resizable=0;points=[];autosize=1;strokeColor=none;fillColor=none;" parent="1" vertex="1">
          <mxGeometry x="730" y="440" width="90" height="30" as="geometry" />
        </mxCell>
        <mxCell id="wYsSjvrQutidgcIgIWFu-354" value="" style="endArrow=none;html=1;rounded=0;exitX=1;exitY=0.5;exitDx=0;exitDy=0;entryX=0;entryY=0.5;entryDx=0;entryDy=0;" parent="1" source="wYsSjvrQutidgcIgIWFu-370" target="wYsSjvrQutidgcIgIWFu-340" edge="1">
          <mxGeometry width="50" height="50" relative="1" as="geometry">
            <mxPoint x="620.0000000000002" y="470" as="sourcePoint" />
            <mxPoint x="740" y="460" as="targetPoint" />
          </mxGeometry>
        </mxCell>
        <mxCell id="wYsSjvrQutidgcIgIWFu-357" value="" style="ellipse;whiteSpace=wrap;html=1;aspect=fixed;" parent="1" vertex="1">
          <mxGeometry x="700" y="362.5" width="30" height="30" as="geometry" />
        </mxCell>
        <mxCell id="wYsSjvrQutidgcIgIWFu-358" value="" style="ellipse;whiteSpace=wrap;html=1;aspect=fixed;" parent="1" vertex="1">
          <mxGeometry x="780" y="280" width="30" height="30" as="geometry" />
        </mxCell>
        <mxCell id="wYsSjvrQutidgcIgIWFu-359" value="" style="ellipse;whiteSpace=wrap;html=1;aspect=fixed;" parent="1" vertex="1">
          <mxGeometry x="900" y="340" width="30" height="30" as="geometry" />
        </mxCell>
        <mxCell id="wYsSjvrQutidgcIgIWFu-360" value="" style="ellipse;whiteSpace=wrap;html=1;aspect=fixed;" parent="1" vertex="1">
          <mxGeometry x="1000" y="290" width="30" height="30" as="geometry" />
        </mxCell>
        <mxCell id="wYsSjvrQutidgcIgIWFu-363" value="&lt;span style=&quot;font-size: 14px;&quot;&gt;AttackType&lt;/span&gt;" style="text;html=1;align=center;verticalAlign=middle;resizable=0;points=[];autosize=1;strokeColor=none;fillColor=none;" parent="1" vertex="1">
          <mxGeometry x="720" y="384" width="90" height="30" as="geometry" />
        </mxCell>
        <mxCell id="wYsSjvrQutidgcIgIWFu-364" value="" style="endArrow=none;html=1;rounded=0;entryX=0;entryY=0.5;entryDx=0;entryDy=0;exitX=1;exitY=0;exitDx=0;exitDy=0;" parent="1" source="wYsSjvrQutidgcIgIWFu-370" target="wYsSjvrQutidgcIgIWFu-357" edge="1">
          <mxGeometry width="50" height="50" relative="1" as="geometry">
            <mxPoint x="610" y="460" as="sourcePoint" />
            <mxPoint x="660" y="410" as="targetPoint" />
          </mxGeometry>
        </mxCell>
        <mxCell id="wYsSjvrQutidgcIgIWFu-365" value="" style="endArrow=none;html=1;rounded=0;entryX=0;entryY=1;entryDx=0;entryDy=0;exitX=1;exitY=0;exitDx=0;exitDy=0;" parent="1" source="wYsSjvrQutidgcIgIWFu-357" target="wYsSjvrQutidgcIgIWFu-358" edge="1">
          <mxGeometry width="50" height="50" relative="1" as="geometry">
            <mxPoint x="720" y="360" as="sourcePoint" />
            <mxPoint x="770" y="320" as="targetPoint" />
          </mxGeometry>
        </mxCell>
        <mxCell id="wYsSjvrQutidgcIgIWFu-366" value="" style="endArrow=none;html=1;rounded=0;exitX=0.108;exitY=-0.297;exitDx=0;exitDy=0;exitPerimeter=0;entryX=0;entryY=1;entryDx=0;entryDy=0;" parent="1" source="wYsSjvrQutidgcIgIWFu-363" target="wYsSjvrQutidgcIgIWFu-359" edge="1">
          <mxGeometry width="50" height="50" relative="1" as="geometry">
            <mxPoint x="790" y="390" as="sourcePoint" />
            <mxPoint x="840" y="340" as="targetPoint" />
          </mxGeometry>
        </mxCell>
        <mxCell id="wYsSjvrQutidgcIgIWFu-367" value="&lt;span style=&quot;font-size: 14px;&quot;&gt;weapon_type&lt;/span&gt;" style="text;html=1;align=center;verticalAlign=middle;resizable=0;points=[];autosize=1;strokeColor=none;fillColor=none;" parent="1" vertex="1">
          <mxGeometry x="800" y="332.5" width="110" height="30" as="geometry" />
        </mxCell>
        <mxCell id="wYsSjvrQutidgcIgIWFu-368" value="&lt;span style=&quot;font-size: 14px;&quot;&gt;weapon_subtype&lt;/span&gt;" style="text;html=1;align=center;verticalAlign=middle;resizable=0;points=[];autosize=1;strokeColor=none;fillColor=none;" parent="1" vertex="1">
          <mxGeometry x="985" y="260" width="130" height="30" as="geometry" />
        </mxCell>
        <mxCell id="wYsSjvrQutidgcIgIWFu-369" value="" style="endArrow=none;html=1;rounded=0;exitX=0.5;exitY=0;exitDx=0;exitDy=0;entryX=0;entryY=0.5;entryDx=0;entryDy=0;" parent="1" source="wYsSjvrQutidgcIgIWFu-359" target="wYsSjvrQutidgcIgIWFu-360" edge="1">
          <mxGeometry width="50" height="50" relative="1" as="geometry">
            <mxPoint x="920" y="330" as="sourcePoint" />
            <mxPoint x="970" y="280" as="targetPoint" />
          </mxGeometry>
        </mxCell>
        <mxCell id="wYsSjvrQutidgcIgIWFu-371" value="" style="endArrow=none;html=1;rounded=0;exitX=0.5;exitY=0;exitDx=0;exitDy=0;entryX=0.5;entryY=1;entryDx=0;entryDy=0;" parent="1" target="wYsSjvrQutidgcIgIWFu-370" edge="1">
          <mxGeometry width="50" height="50" relative="1" as="geometry">
            <mxPoint x="570.0000000000002" y="450" as="sourcePoint" />
            <mxPoint x="605" y="400" as="targetPoint" />
          </mxGeometry>
        </mxCell>
        <mxCell id="wYsSjvrQutidgcIgIWFu-370" value="" style="ellipse;whiteSpace=wrap;html=1;aspect=fixed;" parent="1" vertex="1">
          <mxGeometry x="530" y="440" width="65" height="65" as="geometry" />
        </mxCell>
        <mxCell id="wYsSjvrQutidgcIgIWFu-247" value="" style="ellipse;whiteSpace=wrap;html=1;aspect=fixed;" parent="1" vertex="1">
          <mxGeometry x="550" y="760" width="30" height="30" as="geometry" />
        </mxCell>
        <mxCell id="wYsSjvrQutidgcIgIWFu-377" value="" style="endArrow=none;html=1;rounded=0;exitX=0;exitY=0;exitDx=0;exitDy=0;entryX=0.5;entryY=1;entryDx=0;entryDy=0;" parent="1" source="wYsSjvrQutidgcIgIWFu-247" target="wYsSjvrQutidgcIgIWFu-251" edge="1">
          <mxGeometry width="50" height="50" relative="1" as="geometry">
            <mxPoint x="540" y="730" as="sourcePoint" />
            <mxPoint x="590" y="680" as="targetPoint" />
          </mxGeometry>
        </mxCell>
      </root>
    </mxGraphModel>
  </diagram>
</mxfile>
